<svg xmlns="http://www.w3.org/2000/svg" xmlns:xlink="http://www.w3.org/1999/xlink" width="1920" zoomAndPan="magnify" viewBox="0 0 1440 809.999993" height="1080" preserveAspectRatio="xMidYMid meet" version="1.0"><defs><clipPath id="id1"><path d="M 123 165.269531 L 502 165.269531 L 502 545 L 123 545 Z M 123 165.269531 " clip-rule="nonzero"/></clipPath><clipPath id="id2"><path d="M 588.566406 261 L 730 261 L 730 425 L 588.566406 425 Z M 588.566406 261 " clip-rule="nonzero"/></clipPath><clipPath id="id3"><path d="M 737 481 L 781 481 L 781 539.707031 L 737 539.707031 Z M 737 481 " clip-rule="nonzero"/></clipPath><clipPath id="id4"><path d="M 841 497 L 875 497 L 875 539.707031 L 841 539.707031 Z M 841 497 " clip-rule="nonzero"/></clipPath><clipPath id="id5"><path d="M 901 497 L 936 497 L 936 539.707031 L 901 539.707031 Z M 901 497 " clip-rule="nonzero"/></clipPath><clipPath id="id6"><path d="M 953 497 L 986 497 L 986 539.707031 L 953 539.707031 Z M 953 497 " clip-rule="nonzero"/></clipPath><clipPath id="id7"><path d="M 1041 497 L 1075 497 L 1075 539.707031 L 1041 539.707031 Z M 1041 497 " clip-rule="nonzero"/></clipPath><clipPath id="id8"><path d="M 1100 497 L 1134 497 L 1134 539.707031 L 1100 539.707031 Z M 1100 497 " clip-rule="nonzero"/></clipPath><clipPath id="id9"><path d="M 1135 497 L 1166 497 L 1166 539.707031 L 1135 539.707031 Z M 1135 497 " clip-rule="nonzero"/></clipPath><clipPath id="id10"><path d="M 1167 486 L 1193 486 L 1193 539.707031 L 1167 539.707031 Z M 1167 486 " clip-rule="nonzero"/></clipPath><clipPath id="id11"><path d="M 1243 497 L 1278 497 L 1278 539.707031 L 1243 539.707031 Z M 1243 497 " clip-rule="nonzero"/></clipPath></defs><g clip-path="url(#id1)"><path fill="#4c8d31" d="M 211.90625 166.460938 C 199.941406 168.503906 183.894531 174.320312 177.769531 178.878906 C 176.195312 179.949219 174.714844 180.921875 174.335938 180.921875 C 172.886719 180.921875 159.960938 191.882812 154.746094 197.625 C 147.179688 205.648438 141.085938 214.671875 136.476562 224.695312 C 126.457031 245.84375 123.117188 265.632812 124.140625 296.871094 C 125.25 334.515625 126.644531 353.238281 129.421875 369.152344 C 131.003906 377.976562 136.75 403.105469 137.679688 404.847656 C 138.589844 407.066406 139.363281 409.328125 140 411.636719 C 143.152344 422.605469 151.503906 440.066406 159.476562 452.578125 C 177.746094 481.101562 203.011719 502.445312 237.207031 518.546875 C 240.640625 520.101562 243.695312 521.453125 243.976562 521.453125 C 245.171875 521.78125 246.316406 522.234375 247.410156 522.808594 C 253.992188 525.917969 272.640625 531.933594 283.769531 534.546875 C 287.398438 535.324219 291.933594 536.492188 293.972656 536.972656 C 296.011719 537.453125 300.183594 538.234375 303.246094 538.816406 C 306.304688 539.398438 310.109375 540.082031 311.597656 540.371094 C 318.460938 541.636719 346.46875 544.730469 351.199219 544.730469 C 355.652344 544.730469 356.667969 544.34375 357.882812 542.59375 C 360.566406 538.613281 359.824219 535.332031 355.652344 532.601562 C 353.613281 531.242188 351.570312 530.175781 351.105469 530.175781 C 350.640625 530.175781 347.671875 528.628906 344.523438 526.78125 C 341.375 524.9375 338.585938 523.382812 338.398438 523.382812 C 337.671875 523.382812 324.394531 514.269531 315.769531 507.769531 C 290.167969 488.753906 266.789062 462.265625 257.613281 441.894531 C 251.765625 429.089844 250.84375 416.671875 254.921875 408.230469 C 258.351562 401.050781 266.144531 395.035156 275.882812 392.125 C 277.835938 391.449219 305.285156 390.867188 346.835938 390.476562 C 419.394531 389.699219 414.824219 390.089844 431.246094 384.664062 C 439.3125 381.949219 451.742188 375.15625 459.070312 369.332031 C 480.308594 352.453125 495.058594 326.359375 499.792969 297.429688 C 501.460938 287.261719 501.734375 267.84375 500.253906 260.273438 C 497.839844 247.929688 496.265625 241.941406 493.203125 233.792969 C 482.90625 207.015625 464.542969 186.542969 440.519531 175.097656 C 431.246094 170.636719 430.6875 170.441406 426.609375 169.375 C 411.601562 165.402344 412.066406 165.402344 312.546875 165.496094 C 260.042969 165.589844 214.6875 165.972656 211.90625 166.460938 Z M 413.179688 200.597656 C 423.199219 203.996094 434.886719 210.878906 441.839844 217.476562 C 447.867188 223.207031 455.847656 233.097656 455.847656 234.839844 C 456.253906 235.957031 456.808594 236.996094 457.519531 237.949219 C 459.1875 240.570312 462.988281 249.976562 464.933594 256.578125 C 467.066406 263.464844 467.996094 277.726562 466.980469 286.457031 C 463.636719 314.6875 448.519531 337.871094 425.703125 349.644531 C 410.398438 357.398438 417.355469 356.90625 315.324219 357.304688 C 215.339844 357.597656 218.023438 357.691406 204.019531 351.582031 C 194.585938 347.507812 187.144531 342.074219 179.53125 333.636719 C 154.863281 306.566406 151.152344 265.234375 170.628906 233.808594 C 182.414062 214.789062 199.847656 202.578125 219.789062 199.367188 C 222.386719 198.976562 265.796875 198.6875 316.289062 198.78125 C 400.75 198.960938 408.445312 199.054688 413.179688 200.609375 Z M 413.179688 200.597656 " fill-opacity="1" fill-rule="nonzero"/></g><g clip-path="url(#id2)"><path fill="#4c8d31" d="M 648.074219 386.851562 L 629.917969 423.582031 L 588.609375 424.304688 L 675.429688 261.957031 L 725.136719 261.097656 L 729.6875 421.851562 L 688.449219 422.566406 L 688.613281 386.148438 Z M 689.535156 363.496094 L 690.101562 328.429688 C 690.378906 318.960938 691.4375 301.578125 691.71875 289.558594 L 690.945312 289.558594 C 685.988281 301.707031 679 319.691406 674.699219 328.535156 L 657.804688 364.074219 Z M 689.535156 363.496094 " fill-opacity="1" fill-rule="nonzero"/></g><path fill="#4c8d31" d="M 725.429688 423.476562 L 765.917969 257.644531 L 808.574219 256.894531 L 768.023438 422.703125 Z M 725.429688 423.476562 " fill-opacity="1" fill-rule="nonzero"/><path fill="#4c8d31" d="M 909.394531 344.183594 C 910.050781 381.402344 883.285156 424.078125 834.261719 424.941406 C 792.75 425.664062 783.609375 402.316406 783.316406 385.433594 C 782.609375 345.390625 812.367188 304.589844 861.332031 303.730469 C 902.761719 303.007812 909.152344 327.765625 909.394531 344.183594 Z M 825.242188 383.382812 C 825.386719 391.460938 826.101562 401.617188 838.460938 401.402344 C 857.488281 401.066406 867.71875 362.023438 867.375 341.042969 C 867.246094 333.613281 864.441406 327.140625 854.792969 327.269531 C 837.644531 327.613281 824.621094 363.445312 825.242188 383.382812 Z M 825.242188 383.382812 " fill-opacity="1" fill-rule="nonzero"/><path fill="#4c8d31" d="M 983.015625 420.472656 C 978.359375 421.917969 967.695312 423.917969 954.046875 424.121094 C 918.128906 424.75 902.75 404.320312 902.414062 383.039062 C 901.675781 340.570312 937.871094 304.546875 988.175781 303.671875 C 998.304688 303.496094 1004.957031 304.289062 1008.976562 305.390625 L 998.910156 330.773438 C 994.996094 330.085938 991.054688 329.730469 987.085938 329.703125 C 963.773438 330.109375 944.675781 352.898438 945.109375 377.832031 C 945.339844 390.746094 952.851562 398.878906 965.890625 398.648438 C 973.675781 398.511719 980.519531 396.847656 985.777344 395.796875 Z M 983.015625 420.472656 " fill-opacity="1" fill-rule="nonzero"/><path fill="#4c8d31" d="M 1052.863281 422.617188 C 1053.089844 416.332031 1053.476562 410.082031 1053.855469 403.175781 L 1052.648438 403.175781 C 1040.371094 418.621094 1024.84375 425 1012.007812 425.226562 C 988.058594 425.648438 976.328125 411.121094 975.976562 390.675781 C 975.355469 355.257812 998.703125 304.730469 1068.527344 303.507812 C 1085.167969 303.214844 1101.691406 305.109375 1112.078125 307.628906 L 1095.289062 372.933594 C 1091.734375 386.378906 1089.265625 409.253906 1089.5 422.003906 Z M 1065.582031 327.199219 C 1062.808594 326.789062 1060.015625 326.585938 1057.210938 326.589844 C 1030.835938 327.054688 1017.410156 366.128906 1017.523438 382.546875 C 1017.582031 392.414062 1019.648438 399.621094 1029.871094 399.449219 C 1040.515625 399.257812 1050.457031 386.664062 1055.859375 365.441406 Z M 1065.582031 327.199219 " fill-opacity="1" fill-rule="nonzero"/><path fill="#4c8d31" d="M 1094.214844 397.453125 C 1102.597656 400.691406 1111.277344 402.125 1120.253906 401.757812 C 1131.929688 401.351562 1138.179688 395.925781 1138.058594 388.9375 C 1137.945312 382.617188 1133.679688 378.460938 1122.113281 372.183594 C 1107.828125 364.210938 1101.519531 353.90625 1101.347656 344.03125 C 1100.96875 322.507812 1124.125 304.296875 1161.070312 303.652344 C 1175.371094 303.402344 1185.878906 305.132812 1191.84375 307.613281 L 1183.238281 330.117188 C 1177.007812 327.878906 1170.585938 326.796875 1163.96875 326.871094 C 1151.25 327.097656 1143.09375 332.039062 1143.230469 339.734375 C 1143.324219 345.320312 1147.859375 348.878906 1155.511719 353.042969 C 1174.191406 362.960938 1180.027344 374.308594 1180.191406 383.28125 C 1180.636719 408.996094 1156.042969 424.003906 1118.445312 424.65625 C 1103.421875 424.914062 1090.308594 422.074219 1084.457031 419.394531 Z M 1094.214844 397.453125 " fill-opacity="1" fill-rule="nonzero"/><path fill="#4c8d31" d="M 1168.21875 424.097656 L 1208.710938 258.265625 L 1251.367188 257.515625 L 1235.816406 320.21875 L 1236.480469 320.40625 C 1239.109375 317.730469 1241.980469 315.339844 1245.082031 313.230469 C 1248.1875 311.121094 1251.46875 309.335938 1254.925781 307.875 C 1258.378906 306.414062 1261.945312 305.304688 1265.621094 304.550781 C 1269.296875 303.792969 1273.007812 303.402344 1276.761719 303.378906 C 1297.121094 303.023438 1306.191406 313.40625 1306.457031 328.730469 C 1306.570312 335.328125 1305.226562 342.929688 1303.136719 351.898438 L 1285.925781 422.039062 L 1243.320312 422.789062 L 1260.582031 352.882812 C 1261.605469 348.003906 1262.179688 343.074219 1262.304688 338.089844 C 1262.210938 332.546875 1259.386719 328.972656 1252.839844 329.085938 C 1243.726562 329.25 1231.761719 338.863281 1227.347656 356.453125 L 1210.835938 423.398438 Z M 1168.21875 424.097656 " fill-opacity="1" fill-rule="nonzero"/><g clip-path="url(#id3)"><path fill="#4c8d31" d="M 749.023438 482.753906 C 752.726562 482.113281 756.453125 481.796875 760.210938 481.796875 C 767.535156 481.796875 772.507812 484.09375 775.519531 487.480469 C 778.859375 491.242188 780.046875 496.15625 780.011719 501.832031 C 780.011719 515.71875 773.34375 528.363281 766.542969 533.539062 C 761.277344 537.566406 755.359375 539.050781 747.757812 539.050781 C 744.179688 539.09375 740.628906 538.777344 737.113281 538.09375 Z M 747.886719 531.464844 C 749.007812 531.640625 750.136719 531.738281 751.269531 531.757812 C 755.574219 531.757812 760.167969 529.292969 763.523438 524.378906 C 767.234375 519.015625 770.003906 510.371094 770.003906 501.066406 C 770.003906 494.175781 767.328125 488.761719 760.324219 488.761719 C 759.269531 488.726562 758.226562 488.804688 757.191406 489.003906 Z M 747.886719 531.464844 " fill-opacity="1" fill-rule="nonzero"/></g><path fill="#4c8d31" d="M 780.269531 538.84375 L 789.195312 497.851562 L 798.882812 497.851562 L 789.953125 538.84375 Z M 791.113281 487.4375 C 791.128906 487.066406 791.179688 486.707031 791.265625 486.347656 C 791.351562 485.988281 791.46875 485.640625 791.621094 485.308594 C 791.773438 484.972656 791.953125 484.652344 792.167969 484.351562 C 792.378906 484.054688 792.617188 483.773438 792.882812 483.519531 C 793.148438 483.265625 793.4375 483.039062 793.746094 482.839844 C 794.054688 482.640625 794.382812 482.472656 794.722656 482.332031 C 795.0625 482.195312 795.414062 482.09375 795.777344 482.023438 C 796.136719 481.953125 796.503906 481.917969 796.871094 481.917969 C 800.261719 481.917969 801.816406 484.136719 801.6875 486.722656 C 801.570312 490.25 798.824219 492.257812 795.742188 492.257812 C 792.480469 492.214844 790.984375 490.15625 791.113281 487.394531 Z M 791.113281 487.4375 " fill-opacity="1" fill-rule="nonzero"/><path fill="#4c8d31" d="M 799.441406 538.84375 L 805.328125 511.507812 C 806.5 506.1875 807.179688 501.488281 807.78125 497.851562 L 816.144531 497.851562 L 815.507812 503.683594 L 815.707031 503.683594 C 819.148438 499.335938 823.453125 497.183594 828.289062 497.183594 C 834.5625 497.183594 836.894531 501.210938 836.894531 505.851562 C 836.835938 508.328125 836.511719 510.765625 835.914062 513.167969 L 830.378906 538.84375 L 820.699219 538.84375 L 826.285156 512.859375 C 826.679688 511.246094 826.878906 509.605469 826.886719 507.945312 C 826.886719 505.757812 825.871094 504.277344 823.496094 504.277344 C 819.984375 504.277344 815.578125 508.890625 813.890625 516.65625 L 809.125 538.84375 Z M 799.441406 538.84375 " fill-opacity="1" fill-rule="nonzero"/><g clip-path="url(#id4)"><path fill="#4c8d31" d="M 868.5 536.898438 C 864.550781 538.5625 860.433594 539.367188 856.144531 539.308594 C 845.386719 539.308594 841.515625 532.679688 841.515625 524.335938 C 841.515625 512.757812 848.820312 497.136719 863.027344 497.136719 C 870.773438 497.136719 874.121094 502.253906 874.214844 507.46875 C 874.214844 518.101562 864.097656 522.3125 851.1875 522.105469 C 851.066406 523.285156 850.980469 526.523438 851.929688 528.441406 C 852.996094 530.9375 855.257812 532.453125 858.699219 532.453125 C 861.847656 532.445312 864.832031 531.734375 867.648438 530.328125 Z M 861.722656 504.128906 C 857.855469 504.128906 854.085938 508.363281 852.203125 515.621094 C 859 515.742188 865.457031 513.554688 865.457031 508.234375 C 865.457031 505.609375 864.207031 504.128906 861.722656 504.128906 Z M 861.722656 504.128906 " fill-opacity="1" fill-rule="nonzero"/></g><path fill="#4c8d31" d="M 874.507812 538.84375 L 880.480469 511.144531 C 881.566406 506.109375 882.203125 501.339844 882.683594 497.851562 L 891.082031 497.851562 C 890.9375 500.003906 890.78125 502.15625 890.367188 505.078125 L 890.667969 505.078125 C 893.863281 499.910156 898.011719 497.183594 902.277344 497.183594 C 902.824219 497.175781 903.367188 497.222656 903.90625 497.320312 L 902.011719 505.953125 C 901.515625 505.898438 901.019531 505.863281 900.523438 505.859375 C 894.902344 505.859375 889.894531 512.152344 888.476562 518.714844 L 884.199219 538.84375 Z M 874.507812 538.84375 " fill-opacity="1" fill-rule="nonzero"/><g clip-path="url(#id5)"><path fill="#4c8d31" d="M 935.289062 511.070312 C 935.289062 522.8125 928.402344 539.480469 914.136719 539.480469 C 903.808594 539.480469 901.175781 532.015625 901.175781 525.445312 C 901.175781 512.867188 908.921875 497.148438 923 497.148438 C 933.714844 497.140625 935.289062 505.429688 935.289062 511.070312 Z M 910.824219 524.902344 C 910.824219 528.632812 911.082031 532.816406 915.324219 532.816406 C 922.277344 532.816406 925.652344 517.320312 925.652344 510.183594 C 925.652344 506.738281 924.839844 503.792969 921.40625 503.792969 C 915.089844 503.792969 910.773438 517.414062 910.824219 524.902344 Z M 910.824219 524.902344 " fill-opacity="1" fill-rule="nonzero"/></g><g clip-path="url(#id6)"><path fill="#4c8d31" d="M 980.003906 536.898438 C 976.050781 538.5625 971.933594 539.367188 967.644531 539.308594 C 956.886719 539.308594 953.015625 532.679688 953.015625 524.335938 C 953.015625 512.757812 960.332031 497.136719 974.53125 497.136719 C 982.273438 497.136719 985.628906 502.253906 985.714844 507.46875 C 985.714844 518.101562 975.597656 522.3125 962.695312 522.105469 C 962.507812 523.34375 962.507812 526.566406 963.367188 528.511719 C 964.433594 531.007812 966.699219 532.523438 970.140625 532.523438 C 973.289062 532.515625 976.273438 531.804688 979.089844 530.398438 Z M 973.230469 504.128906 C 969.367188 504.128906 965.589844 508.363281 963.703125 515.621094 C 970.511719 515.742188 976.957031 513.554688 976.957031 508.234375 C 976.957031 505.609375 975.707031 504.128906 973.230469 504.128906 Z M 973.230469 504.128906 " fill-opacity="1" fill-rule="nonzero"/></g><path fill="#4c8d31" d="M 986.019531 538.84375 L 991.902344 511.507812 C 993.066406 506.1875 993.753906 501.488281 994.355469 497.851562 L 1002.722656 497.851562 L 1002.085938 503.683594 L 1002.28125 503.683594 C 1005.722656 499.335938 1010.027344 497.183594 1014.863281 497.183594 C 1021.136719 497.183594 1023.46875 501.210938 1023.46875 505.851562 C 1023.410156 508.328125 1023.085938 510.765625 1022.488281 513.167969 L 1016.953125 538.84375 L 1007.257812 538.84375 L 1012.847656 512.859375 C 1013.246094 511.246094 1013.445312 509.605469 1013.453125 507.945312 C 1013.453125 505.757812 1012.4375 504.277344 1010.0625 504.277344 C 1006.550781 504.277344 1002.144531 508.890625 1000.457031 516.65625 L 995.699219 538.84375 Z M 986.019531 538.84375 " fill-opacity="1" fill-rule="nonzero"/><g clip-path="url(#id7)"><path fill="#4c8d31" d="M 1068.878906 536.898438 C 1064.929688 538.5625 1060.808594 539.367188 1056.523438 539.308594 C 1045.765625 539.308594 1041.894531 532.679688 1041.894531 524.335938 C 1041.894531 512.757812 1049.207031 497.136719 1063.40625 497.136719 C 1071.152344 497.136719 1074.507812 502.253906 1074.59375 507.46875 C 1074.59375 518.101562 1064.472656 522.3125 1051.574219 522.105469 C 1051.445312 523.285156 1051.367188 526.523438 1052.304688 528.441406 C 1053.371094 530.9375 1055.636719 532.453125 1059.078125 532.453125 C 1062.226562 532.445312 1065.210938 531.734375 1068.027344 530.328125 Z M 1062.105469 504.128906 C 1058.242188 504.128906 1054.464844 508.363281 1052.589844 515.621094 C 1059.386719 515.742188 1065.832031 513.554688 1065.832031 508.234375 C 1065.832031 505.609375 1064.585938 504.128906 1062.105469 504.128906 Z M 1062.105469 504.128906 " fill-opacity="1" fill-rule="nonzero"/></g><path fill="#4c8d31" d="M 1076.433594 538.84375 L 1083.992188 504.09375 L 1077.96875 504.09375 L 1079.25 497.851562 L 1085.359375 497.851562 L 1085.816406 495.832031 C 1086.839844 491.105469 1088.871094 486.695312 1092.613281 483.527344 C 1094.175781 482.3125 1095.894531 481.394531 1097.769531 480.773438 C 1099.648438 480.148438 1101.574219 479.859375 1103.550781 479.902344 C 1105.597656 479.859375 1107.605469 480.117188 1109.574219 480.675781 L 1107.3125 487.324219 C 1106.125 486.980469 1104.914062 486.820312 1103.679688 486.851562 C 1098.9375 486.851562 1096.175781 491.578125 1095.359375 496.035156 L 1094.972656 497.851562 L 1103.914062 497.851562 L 1102.585938 504.09375 L 1093.671875 504.09375 L 1086.082031 538.84375 Z M 1076.433594 538.84375 " fill-opacity="1" fill-rule="nonzero"/><g clip-path="url(#id8)"><path fill="#4c8d31" d="M 1127.730469 536.898438 C 1123.78125 538.5625 1119.660156 539.367188 1115.375 539.308594 C 1104.617188 539.308594 1100.746094 532.679688 1100.746094 524.335938 C 1100.746094 512.757812 1108.050781 497.136719 1122.257812 497.136719 C 1130.046875 497.136719 1133.351562 502.253906 1133.445312 507.46875 C 1133.445312 518.101562 1123.324219 522.3125 1110.417969 522.105469 C 1110.296875 523.285156 1110.210938 526.523438 1111.15625 528.441406 C 1112.226562 530.9375 1114.488281 532.453125 1117.929688 532.453125 C 1121.078125 532.445312 1124.0625 531.734375 1126.878906 530.328125 Z M 1120.949219 504.128906 C 1117.085938 504.128906 1113.316406 508.363281 1111.433594 515.621094 C 1118.230469 515.742188 1124.6875 513.554688 1124.6875 508.234375 C 1124.703125 505.609375 1123.429688 504.128906 1120.96875 504.128906 Z M 1120.949219 504.128906 " fill-opacity="1" fill-rule="nonzero"/></g><g clip-path="url(#id9)"><path fill="#4c8d31" d="M 1157.359375 538.171875 C 1154.75 538.988281 1152.074219 539.367188 1149.339844 539.308594 C 1139.453125 539.308594 1135.570312 532.316406 1135.570312 524.621094 C 1135.570312 511.164062 1144.941406 497.234375 1159.832031 497.234375 C 1161.648438 497.15625 1163.425781 497.398438 1165.15625 497.957031 L 1162.695312 505.007812 C 1161.570312 504.703125 1160.421875 504.539062 1159.253906 504.515625 C 1151.042969 504.515625 1145.347656 514.496094 1145.347656 523.457031 C 1145.347656 528.710938 1147.429688 532.179688 1152.007812 532.179688 C 1153.960938 532.125 1155.871094 531.804688 1157.738281 531.222656 Z M 1157.359375 538.171875 " fill-opacity="1" fill-rule="nonzero"/></g><g clip-path="url(#id10)"><path fill="#4c8d31" d="M 1186.058594 486.902344 L 1183.617188 497.808594 L 1192.402344 497.808594 L 1191.078125 504.015625 L 1182.238281 504.015625 L 1177.753906 524.972656 C 1177.453125 526.367188 1177.273438 527.78125 1177.222656 529.207031 C 1177.222656 531.515625 1178.453125 532.496094 1180.664062 532.496094 C 1181.679688 532.523438 1182.695312 532.46875 1183.703125 532.332031 L 1182.667969 538.800781 C 1180.636719 539.242188 1178.578125 539.441406 1176.5 539.402344 C 1170.335938 539.402344 1167.121094 536.34375 1167.121094 531.507812 C 1167.167969 529.34375 1167.453125 527.214844 1167.980469 525.117188 L 1172.539062 504.015625 L 1167.058594 504.015625 L 1168.339844 497.808594 L 1173.933594 497.808594 L 1175.835938 489.15625 Z M 1186.058594 486.902344 " fill-opacity="1" fill-rule="nonzero"/></g><path fill="#4c8d31" d="M 1189.363281 538.84375 L 1198.296875 497.808594 L 1207.988281 497.808594 L 1199.054688 538.84375 Z M 1200.214844 487.4375 C 1200.230469 487.066406 1200.28125 486.703125 1200.367188 486.347656 C 1200.453125 485.988281 1200.570312 485.640625 1200.722656 485.304688 C 1200.871094 484.96875 1201.054688 484.652344 1201.265625 484.351562 C 1201.480469 484.050781 1201.71875 483.773438 1201.984375 483.519531 C 1202.25 483.261719 1202.539062 483.035156 1202.847656 482.835938 C 1203.15625 482.636719 1203.480469 482.46875 1203.824219 482.332031 C 1204.164062 482.195312 1204.515625 482.089844 1204.878906 482.019531 C 1205.238281 481.953125 1205.605469 481.917969 1205.972656 481.917969 C 1209.363281 481.917969 1210.921875 484.136719 1210.792969 486.722656 C 1210.671875 490.25 1207.925781 492.257812 1204.84375 492.257812 C 1201.582031 492.214844 1200.085938 490.15625 1200.214844 487.394531 Z M 1200.214844 487.4375 " fill-opacity="1" fill-rule="nonzero"/><path fill="#4c8d31" d="M 1223.253906 497.808594 L 1223.253906 518.566406 C 1223.0625 523.671875 1223.132812 526.023438 1222.847656 529.5 L 1223.125 529.5 C 1224.242188 526.144531 1225.34375 523.578125 1227.246094 519.058594 L 1236.554688 497.808594 L 1246.273438 497.808594 L 1225.402344 538.84375 L 1215.835938 538.84375 L 1213.140625 497.851562 Z M 1223.253906 497.808594 " fill-opacity="1" fill-rule="nonzero"/><g clip-path="url(#id11)"><path fill="#4c8d31" d="M 1277.949219 511.070312 C 1277.949219 522.8125 1271.0625 539.480469 1256.796875 539.480469 C 1246.46875 539.480469 1243.835938 532.015625 1243.835938 525.445312 C 1243.835938 512.867188 1251.582031 497.148438 1265.660156 497.148438 C 1276.375 497.140625 1277.949219 505.429688 1277.949219 511.070312 Z M 1253.484375 524.902344 C 1253.484375 528.632812 1253.75 532.816406 1257.984375 532.816406 C 1264.945312 532.816406 1268.308594 517.320312 1268.308594 510.183594 C 1268.308594 506.738281 1267.5 503.792969 1264.066406 503.792969 C 1257.75 503.792969 1253.433594 517.414062 1253.484375 524.902344 Z M 1253.484375 524.902344 " fill-opacity="1" fill-rule="nonzero"/></g></svg>