<svg id="Layer_1" data-name="Layer 1" xmlns="http://www.w3.org/2000/svg" viewBox="0 0 989.2 890.64"><path d="M409.51,98.46c-16.49,2.81-38.61,10.82-47.05,17.1-2.17,1.47-4.21,2.81-4.73,2.81-2,0-19.81,15.09-27,23a139,139,0,0,0-25.18,37.27c-13.81,29.12-18.41,56.37-17,99.38,1.53,51.83,3.45,77.61,7.28,99.52,2.18,12.15,10.1,46.75,11.38,49.15a81.73,81.73,0,0,1,3.2,9.35c4.34,15.1,15.85,39.14,26.84,56.37,25.18,39.27,60,68.66,107.13,90.83,4.73,2.14,8.94,4,9.33,4a23.55,23.55,0,0,1,4.73,1.87c9.07,4.28,34.77,12.56,50.11,16.16,5,1.07,11.25,2.68,14.06,3.34s8.56,1.74,12.78,2.54,9.46,1.74,11.51,2.14c9.46,1.74,48.06,6,54.58,6,6.14,0,7.54-.53,9.21-2.94,3.7-5.48,2.68-10-3.07-13.76-2.81-1.87-5.63-3.34-6.27-3.34s-4.73-2.13-9.07-4.67-8.18-4.68-8.44-4.68c-1,0-19.3-12.55-31.19-21.5-35.28-26.18-67.5-62.65-80.15-90.7-8.06-17.63-9.33-34.73-3.71-46.35,4.73-9.89,15.47-18.17,28.89-22.18,2.69-.93,40.52-1.73,97.79-2.27,100-1.07,93.7-.53,116.33-8,11.12-3.74,28.25-13.09,38.35-21.11,29.27-23.24,49.6-59.17,56.12-99,2.3-14,2.68-40.74.64-51.16-3.33-17-5.5-25.24-9.72-36.46-14.19-36.87-39.5-65.06-72.61-80.82-12.78-6.14-13.55-6.41-19.17-7.88C684.73,97,685.37,97,548.21,97.13,475.85,97.26,413.34,97.79,409.51,98.46Zm277.39,47c13.81,4.68,29.92,14.16,39.5,23.24,8.31,7.89,19.31,21.51,19.31,23.91a16.59,16.59,0,0,0,2.3,4.28c2.3,3.61,7.54,16.56,10.22,25.65,2.94,9.48,4.22,29.12,2.82,41.14-4.61,38.87-25.44,70.79-56.89,87-21.09,10.68-11.5,10-152.12,10.55-137.8.4-134.1.53-153.4-7.88-13-5.61-23.26-13.09-33.75-24.71-34-37.27-39.11-94.18-12.27-137.45,16.24-26.19,40.27-43,67.75-47.42,3.58-.54,63.41-.94,133-.81C669.77,143.21,680.38,143.34,686.9,145.48Z" transform="translate(-117.46 -97.09)"/><path d="M186.61,810.46l-21.1,42.66-48,.84L218.4,665.39l57.76-1,5.29,186.72-47.92.83.19-42.3Zm48.18-27.13.66-40.73c.32-11,1.55-31.19,1.88-45.15h-.9c-5.76,14.11-13.88,35-18.88,45.27L197.92,784Z" transform="translate(-117.46 -97.09)"/><path d="M276.5,853l47.05-192.62,49.57-.87L326,852.1Z" transform="translate(-117.46 -97.09)"/><path d="M490.28,760.9c.76,43.23-30.34,92.8-87.31,93.8-48.24.84-58.86-26.28-59.2-45.89-.82-46.51,33.76-93.9,90.66-94.9C482.57,713.07,490,741.83,490.28,760.9Zm-97.79,45.53c.17,9.38,1,21.18,15.36,20.93,22.11-.39,34-45.74,33.6-70.11-.15-8.63-3.41-16.15-14.62-16C406.9,741.65,391.77,783.27,392.49,806.43Z" transform="translate(-117.46 -97.09)"/><path d="M575.83,849.51c-5.41,1.68-17.8,4-33.66,4.24-41.74.73-59.61-23-60-47.72-.86-49.33,41.2-91.17,99.66-92.19,11.77-.2,19.5.72,24.17,2l-11.7,29.48a82.32,82.32,0,0,0-13.74-1.24c-27.09.47-49.28,26.94-48.78,55.9.27,15,9,24.45,24.15,24.18,9.05-.16,17-2.09,23.11-3.31Z" transform="translate(-117.46 -97.09)"/><path d="M657,852c.26-7.3.71-14.56,1.15-22.58l-1.4,0c-14.27,17.94-32.31,25.35-47.23,25.61-27.83.49-41.46-16.38-41.87-40.13-.72-41.14,26.41-99.83,107.55-101.25,19.34-.34,38.54,1.86,50.61,4.79L706.3,794.29c-4.13,15.62-7,42.19-6.73,57Zm14.78-110.83a66.61,66.61,0,0,0-9.73-.71c-30.65.54-46.25,45.93-46.12,65,.07,11.46,2.47,19.83,14.35,19.63,12.37-.22,23.92-14.85,30.2-39.5Z" transform="translate(-117.46 -97.09)"/><path d="M705.05,822.77a75.39,75.39,0,0,0,30.26,5c13.57-.47,20.83-6.77,20.69-14.89-.13-7.34-5.09-12.17-18.53-19.46-16.6-9.26-23.93-21.23-24.13-32.7-.44-25,26.47-46.15,69.4-46.9,16.62-.29,28.83,1.72,35.76,4.6l-10,26.14a64,64,0,0,0-22.39-3.77c-14.78.26-24.26,6-24.1,14.94.11,6.49,5.38,10.62,14.27,15.46,21.71,11.52,28.49,24.7,28.68,35.12.52,29.87-28.06,47.3-71.75,48.06-17.46.3-32.7-3-39.5-6.11Z" transform="translate(-117.46 -97.09)"/><path d="M791.05,853.72,838.1,661.1l49.57-.87L869.6,733.06l.77.22a66.28,66.28,0,0,1,46.81-19.78c23.66-.41,34.2,11.65,34.51,29.45.13,7.66-1.43,16.49-3.86,26.91l-20,81.47-49.51.87L898.38,771a95.56,95.56,0,0,0,2-17.18c-.11-6.44-3.39-10.59-11-10.46-10.59.19-24.49,11.36-29.62,31.79l-19.19,77.76Z" transform="translate(-117.46 -97.09)"/><text x="-117.46" y="-97.09"/><path d="M303.92,921.85a76.23,76.23,0,0,1,13-1.11c8.51,0,14.29,2.67,17.79,6.6,3.88,4.37,5.26,10.08,5.22,16.67,0,16.13-7.75,30.82-15.65,36.83-6.12,4.68-13,6.4-21.83,6.4a60.68,60.68,0,0,1-12.37-1.11Zm-1.32,56.58a28.2,28.2,0,0,0,3.93.34c5,0,10.34-2.86,14.24-8.57,4.31-6.23,7.53-16.27,7.53-27.08,0-8-3.11-14.29-11.25-14.29a16.41,16.41,0,0,0-3.64.28Z" transform="translate(-117.46 -97.09)"/><path d="M340.23,987l10.37-47.61h11.26L351.48,987Zm12.6-59.71a6.7,6.7,0,0,1,6.69-6.41c3.94,0,5.75,2.58,5.6,5.58-.14,4.1-3.33,6.43-6.91,6.43C354.42,932.84,352.68,930.45,352.83,927.24Z" transform="translate(-117.46 -97.09)"/><path d="M362.51,987l6.84-31.75c1.36-6.18,2.15-11.64,2.85-15.86h9.72l-.74,6.77h.23c4-5.05,9-7.55,14.62-7.55,7.29,0,10,4.68,10,10.07a39,39,0,0,1-1.14,8.5L398.46,987H387.21l6.49-30.18a24.39,24.39,0,0,0,.7-5.71c0-2.54-1.18-4.26-3.94-4.26-4.08,0-9.2,5.36-11.16,14.38L373.76,987Z" transform="translate(-117.46 -97.09)"/><path d="M442.76,984.74a35.71,35.71,0,0,1-14.36,2.8c-12.5,0-17-7.7-17-17.39,0-13.45,8.49-31.59,25-31.59,9,0,12.89,5.94,13,12,0,12.35-11.76,17.24-26.76,17-.14,1.37-.24,5.13.86,7.36,1.24,2.9,3.87,4.66,7.87,4.66a23.45,23.45,0,0,0,10.4-2.47Zm-7.88-38.06c-4.49,0-8.87,4.92-11.06,13.35,7.9.14,15.4-2.4,15.4-8.58C439.22,948.4,437.77,946.68,434.88,946.68Z" transform="translate(-117.46 -97.09)"/><path d="M449.74,987l6.94-32.17c1.26-5.85,2-11.39,2.56-15.44H469c-.17,2.5-.35,5-.83,8.39h.35c3.71-6,8.53-9.17,13.49-9.17a10,10,0,0,1,1.89.16L481.7,948.8a16.25,16.25,0,0,0-1.73-.11c-6.53,0-12.35,7.31-14,14.93L461,987Z" transform="translate(-117.46 -97.09)"/><path d="M520.37,954.74c0,13.64-8,33-24.58,33-12,0-15.06-8.67-15.06-16.3,0-14.61,9-32.87,25.36-32.87C518.54,938.56,520.37,948.19,520.37,954.74Zm-28.43,16.07c0,4.33.3,9.19,5.23,9.19,8.08,0,12-18,12-26.29,0-4-.94-7.42-4.93-7.42C496.9,946.29,491.88,962.11,491.94,970.81Z" transform="translate(-117.46 -97.09)"/><path d="M572.33,984.74a35.71,35.71,0,0,1-14.36,2.8c-12.5,0-17-7.7-17-17.39,0-13.45,8.5-31.59,25-31.59,9,0,12.9,5.94,13,12,0,12.35-11.76,17.24-26.75,17C552,969,552,972.74,553,975c1.24,2.9,3.87,4.66,7.87,4.66a23.41,23.41,0,0,0,10.4-2.47Zm-7.87-38.06c-4.49,0-8.88,4.92-11.07,13.35,7.91.14,15.4-2.4,15.4-8.58C568.79,948.4,567.34,946.68,564.46,946.68Z" transform="translate(-117.46 -97.09)"/><path d="M579.32,987l6.84-31.75c1.35-6.18,2.15-11.64,2.85-15.86h9.72l-.74,6.77h.23c4-5.05,9-7.55,14.62-7.55,7.29,0,10,4.68,10,10.07a39,39,0,0,1-1.14,8.5L615.27,987H604l6.5-30.18a24.39,24.39,0,0,0,.7-5.71c0-2.54-1.18-4.26-3.94-4.26-4.08,0-9.2,5.36-11.16,14.38L590.57,987Z" transform="translate(-117.46 -97.09)"/><path d="M675.61,984.74a35.71,35.71,0,0,1-14.36,2.8c-12.5,0-17-7.7-17-17.39,0-13.45,8.5-31.59,25-31.59,9,0,12.9,5.94,13,12,0,12.35-11.76,17.24-26.75,17-.15,1.37-.24,5.13.85,7.36,1.24,2.9,3.87,4.66,7.87,4.66a23.41,23.41,0,0,0,10.4-2.47Zm-7.87-38.06c-4.49,0-8.88,4.92-11.06,13.35,7.9.14,15.39-2.4,15.39-8.58C672.07,948.4,670.62,946.68,667.74,946.68Z" transform="translate(-117.46 -97.09)"/><path d="M684.39,987l8.78-40.36h-7l1.49-7.25h7.1l.53-2.35c1.19-5.49,3.55-10.61,7.9-14.29a20,20,0,0,1,12.71-4.21,23.66,23.66,0,0,1,7,.9l-2.63,7.72a14,14,0,0,0-4.22-.55c-5.51,0-8.72,5.49-9.67,10.67l-.45,2.11h10.39l-1.54,7.25H704.42L695.6,987Z" transform="translate(-117.46 -97.09)"/><path d="M744,984.74a35.71,35.71,0,0,1-14.36,2.8c-12.5,0-17-7.7-17-17.39,0-13.45,8.49-31.59,25-31.59,9.05,0,12.89,5.94,13,12,0,12.35-11.76,17.24-26.76,17-.14,1.37-.24,5.13.86,7.36,1.24,2.9,3.87,4.66,7.87,4.66a23.45,23.45,0,0,0,10.4-2.47Zm-7.88-38.06c-4.49,0-8.87,4.92-11.06,13.35,7.9.14,15.4-2.4,15.4-8.58C740.48,948.4,739,946.68,736.14,946.68Z" transform="translate(-117.46 -97.09)"/><path d="M778.43,986.22a29.09,29.09,0,0,1-9.32,1.32c-11.49,0-16-8.12-16-17.06,0-15.63,10.89-31.81,28.19-31.81a17.79,17.79,0,0,1,6.19.84l-2.86,8.19a16.72,16.72,0,0,0-4-.57c-9.54,0-16.16,11.59-16.16,22,0,6.1,2.42,10.13,7.74,10.13a24.73,24.73,0,0,0,6.66-1.11Z" transform="translate(-117.46 -97.09)"/><path d="M811.78,926.67l-2.84,12.67h10.21l-1.54,7.21H807.34l-5.21,24.34a27.87,27.87,0,0,0-.62,4.92c0,2.68,1.43,3.82,4,3.82a21.93,21.93,0,0,0,3.53-.19l-1.2,7.51a31,31,0,0,1-7.17.7c-7.16,0-10.9-3.55-10.9-9.17a33.49,33.49,0,0,1,1-7.42l5.3-24.51H789.7l1.49-7.21h6.5l2.21-10.05Z" transform="translate(-117.46 -97.09)"/><path d="M815.62,987,826,939.34h11.26L826.88,987Zm12.61-59.71a6.69,6.69,0,0,1,6.69-6.41c3.94,0,5.75,2.58,5.6,5.58-.14,4.1-3.33,6.43-6.91,6.43C829.82,932.84,828.08,930.45,828.23,927.24Z" transform="translate(-117.46 -97.09)"/><path d="M855,939.34,855,963.45c-.22,5.93-.14,8.66-.47,12.7h.32c1.3-3.9,2.58-6.88,4.79-12.13l10.82-24.68h11.29L857.5,987H846.38l-3.13-47.61Z" transform="translate(-117.46 -97.09)"/><path d="M918.56,954.74c0,13.64-8,33-24.58,33-12,0-15.06-8.67-15.06-16.3,0-14.61,9-32.87,25.36-32.87C916.73,938.56,918.56,948.19,918.56,954.74Zm-28.43,16.07c0,4.33.31,9.19,5.23,9.19,8.09,0,12-18,12-26.29,0-4-.94-7.42-4.93-7.42C895.09,946.29,890.07,962.11,890.13,970.81Z" transform="translate(-117.46 -97.09)"/></svg>